# xmcd
#
# Track frame offsets:
#	150
#	9062
#	28118
#	48015
#	66127
#	95657
#	112888
#	138151
#	159045
#	177833
#	194791
#	212690
#	231176
#	248254
#	271395
#	295614
#	315013
#
# Disc length: 4422 seconds
#
# Revision: 0
# Processed by: cddbd v1.5.1PL2 Copyright (c) Steve Scherf et al.
# Submitted via: EasyCDDAExtractor 4.6.9.1
#
DISCID=cf114411
DTITLE=Erika Badu - Ultimate Collection
DYEAR=1900
DGENRE=Soul
TTITLE0=Rimshot (Intro)
TTITLE1=Bad Lady
TTITLE2=Appletree
TTITLE3=My Life
TTITLE4=Other Side Of The Game
TTITLE5=Sweet Baby feat. Macy Gray
TTITLE6=Kiss Me On My Neck
TTITLE7=Plenty feat. Guru
TTITLE8=Sometimes
TTITLE9=On and On
TTITLE10=Didn't Cha Know
TTITLE11=Booty
TTITLE12=Cleva
TTITLE13=No Love
TTITLE14=Im Love With You
TTITLE15=Searching
TTITLE16=Tyrone
EXTD=
EXTT0=
EXTT1=
EXTT2=
EXTT3=
EXTT4=
EXTT5=
EXTT6=
EXTT7=
EXTT8=
EXTT9=
EXTT10=
EXTT11=
EXTT12=
EXTT13=
EXTT14=
EXTT15=
EXTT16=
PLAYORDER=
